<?xml version="1.0" encoding="UTF-8"?>
<svg width="20px" height="20px" viewBox="0 0 20 20" version="1.1" xmlns="http://www.w3.org/2000/svg" xmlns:xlink="http://www.w3.org/1999/xlink">
    <title>icon_miniplayer</title>
    <g id="icon_miniplayer" stroke="none" stroke-width="1" fill="none" fill-rule="evenodd">
        <rect id="矩形" x="0" y="0" width="20" height="20"></rect>
        <path d="M12.8325339,16.9930883 L13,17 C12.9403467,17 12.8813035,16.9973884 12.8229783,16.9922732 C12.7769121,16.9882441 12.7308318,16.9825799 12.6852634,16.9753769 C12.6592949,16.9712768 12.6331469,16.966608 12.6071801,16.9614365 C12.5836732,16.9567541 12.5603741,16.9516738 12.5372305,16.9461913 C12.5142105,16.9407361 12.4915033,16.9349267 12.4689553,16.9287325 C12.4359254,16.9196593 12.4032081,16.9097507 12.3708569,16.8990385 C12.3576342,16.8946641 12.3439867,16.8899829 12.3304066,16.8851592 C12.2954762,16.8727406 12.2615022,16.8595924 12.2279915,16.8455581 C12.2138996,16.8396589 12.1996297,16.8334869 12.1854471,16.8271547 C12.150649,16.8116153 12.1164902,16.79517 12.0828869,16.7778 C12.0710061,16.7716623 12.0587759,16.7651816 12.0466218,16.7585785 C11.9586955,16.710774 11.8752629,16.6569512 11.7963795,16.5974206 L11.7888004,16.5916727 C11.781223,16.5858977 11.773688,16.5800699 11.7661961,16.5741897 C11.7335785,16.548579 11.7020697,16.5222369 11.6714056,16.4949657 C11.6654406,16.489662 11.6593226,16.4841547 11.653239,16.4786104 C11.5863017,16.4175949 11.5236503,16.3522465 11.4656119,16.2829051 C11.452296,16.2669934 11.4393253,16.2510016 11.4265992,16.2348084 C11.40855,16.2118514 11.3907606,16.1881663 11.3734928,16.1640819 C11.3622308,16.1483711 11.3512887,16.1326358 11.340569,16.116738 C11.3216262,16.0886432 11.3034072,16.0600898 11.285905,16.0310555 C11.2797901,16.0209074 11.2739476,16.0110195 11.2681881,16.0010775 L4,16 C2.34314575,16 1,14.6568542 1,13 L1,6 C1,4.34314575 2.34314575,3 4,3 L16,3 C17.6568542,3 19,4.34314575 19,6 L19.0010775,11.2681881 L19.0310555,11.285905 C19.0600898,11.3034072 19.0886432,11.3216262 19.1166912,11.3405375 L19.0010775,11.2681881 C19.0571448,11.300668 19.111489,11.3357924 19.1639396,11.3733908 C19.1881663,11.3907606 19.2118514,11.40855 19.2351206,11.4268446 C19.2510016,11.4393253 19.2669934,11.452296 19.2827784,11.4655058 C19.3522465,11.5236503 19.4175949,11.5863017 19.4784783,11.653094 C19.4841547,11.6593226 19.489662,11.6654406 19.495132,11.6715926 C19.5963276,11.7853781 19.6848533,11.9110199 19.7582748,12.046063 C19.7651816,12.0587759 19.7716623,12.0710061 19.778019,12.0833108 C19.79517,12.1164902 19.8116153,12.150649 19.8271022,12.1853296 C19.8334869,12.1996297 19.8396589,12.2138996 19.8456682,12.2282544 C19.8595924,12.2615022 19.8727406,12.2954762 19.8849734,12.329884 C19.8899829,12.3439867 19.8946641,12.3576342 19.8992009,12.3713476 C19.9097507,12.4032081 19.9196593,12.4359254 19.9287407,12.4689852 C19.9349267,12.4915033 19.9407361,12.5142105 19.9461532,12.5370696 C19.9516738,12.5603741 19.9567541,12.5836732 19.9614245,12.6071202 C19.966608,12.6331469 19.9712768,12.6592949 19.9754322,12.6856135 C19.9870246,12.7589502 19.9946483,12.8339754 19.9980159,12.9101067 C19.9993259,12.9395426 20,12.9696926 20,13 L20,15 C20,16.0543618 19.1841222,16.9181651 18.1492623,16.9945143 L18,17 L18,17 L13,17 C12.9436023,17 12.8877498,16.9976656 12.8325339,16.9930883 Z M18,12.5 L13,12.5 C12.7545401,12.5 12.5503916,12.6768752 12.5080557,12.9101244 L12.5,13 L12.5,15 C12.5,15.2454599 12.6768752,15.4496084 12.9101244,15.4919443 L13,15.5 L18,15.5 C18.2454599,15.5 18.4496084,15.3231248 18.4919443,15.0898756 L18.5,15 L18.5,13 C18.5,12.7545401 18.3231248,12.5503916 18.0898756,12.5080557 L18,12.5 Z M16,4.5 L4,4.5 C3.22030388,4.5 2.57955132,5.09488808 2.50686658,5.85553999 L2.5,6 L2.5,13 C2.5,13.7796961 3.09488808,14.4204487 3.85572538,14.4931334 L4.00022237,14.5 L11,14.501 L11,13 C11,11.8954305 11.8954305,11 13,11 L17.501,11 L17.5,6 C17.5,5.22030388 16.9051119,4.57955132 16.14446,4.50686658 L16,4.5 Z" id="形状结合" fill="#FFFFFF" fill-rule="nonzero"></path>
    </g>
</svg>